<svg width="68" height="68" viewBox="0 0 68 68" fill="none" xmlns="http://www.w3.org/2000/svg">
<path d="M0 33.5271C0 15.0106 15.0106 0 33.5271 0C52.0435 0 67.0541 15.0106 67.0541 33.5271V54.8901C67.0541 61.6081 61.6081 67.0541 54.8901 67.0541H33.5271C15.0106 67.0541 0 52.0435 0 33.5271Z" fill="#1A1A1A" style="fill:#1A1A1A;fill:color(display-p3 0.1026 0.1026 0.1026);fill-opacity:1;"/>
<path fill-rule="evenodd" clip-rule="evenodd" d="M0 33.5271C0 34.1562 0.0173296 34.7813 0.0515377 35.4019C1.0241 53.0463 15.6397 67.0541 33.5271 67.0541H54.8901C60.9854 67.0541 66.0335 62.571 66.9171 56.7222C67.0073 56.1247 67.0541 55.5128 67.0541 54.8901V33.5271C67.0541 15.0106 52.0435 0 33.5271 0C15.0106 0 0 15.0106 0 33.5271ZM63.2529 33.5271C63.2529 17.11 49.9442 3.80125 33.5271 3.80125C17.11 3.80125 3.80125 17.11 3.80125 33.5271C3.80125 47.8448 17.11 59.4516 33.5271 59.4516H54.8901C59.5087 59.4516 63.2529 57.4094 63.2529 54.8901V33.5271Z" fill="#D6BFB2" style="fill:#D6BFB2;fill:color(display-p3 0.8392 0.7490 0.6980);fill-opacity:1;"/>
<path d="M15.1773 22.0356C15.3287 19.9499 17.1423 18.3818 19.2279 18.5333C21.3136 18.6847 22.8816 20.4982 22.7302 22.5839L22.1023 31.2327C21.9509 33.3184 20.1373 34.8864 18.0517 34.735C15.966 34.5836 14.3979 32.77 14.5494 30.6844L15.1773 22.0356Z" fill="#C0AA9D" style="fill:#C0AA9D;fill:color(display-p3 0.7540 0.6675 0.6157);fill-opacity:1;"/>
<path d="M30.5056 23.4896C30.6571 21.4039 32.4706 19.8359 34.5563 19.9873C36.642 20.1388 38.21 21.9523 38.0586 24.038L37.4306 32.6868C37.2792 34.7725 35.4657 36.3405 33.38 36.1891C31.2943 36.0376 29.7263 34.2241 29.8777 32.1384L30.5056 23.4896Z" fill="#C0AA9D" style="fill:#C0AA9D;fill:color(display-p3 0.7540 0.6675 0.6157);fill-opacity:1;"/>
</svg>
