<svg width="45" height="43" viewBox="0 0 45 43" fill="none" xmlns="http://www.w3.org/2000/svg">
<path d="M0 6.01646C-9.58285e-08 2.69366 2.60694 5.32637e-08 5.82277 0C9.03859 -5.32637e-08 11.6455 2.69366 11.6455 6.01646V15.2181C11.6455 18.5409 9.03859 21.2346 5.82277 21.2346C2.60694 21.2346 3.61201e-07 18.5409 2.65373e-07 15.2181L0 6.01646Z" fill="#FF5858" style="fill:#FF5858;fill:color(display-p3 1.0000 0.3451 0.3451);fill-opacity:1;"/>
<path d="M33.224 6.01646C33.224 2.69366 35.831 5.32637e-08 39.0468 0C42.2626 -5.32637e-08 44.8696 2.69366 44.8696 6.01646V15.2181C44.8696 18.5409 42.2626 21.2346 39.0468 21.2346C35.831 21.2346 33.224 18.5409 33.224 15.2181V6.01646Z" fill="#FF5858" style="fill:#FF5858;fill:color(display-p3 1.0000 0.3451 0.3451);fill-opacity:1;"/>
<path fill-rule="evenodd" clip-rule="evenodd" d="M5.66743 26.5214C5.66727 26.5198 5.66712 26.5182 8.90541 26.1893C12.1437 25.8604 12.1436 25.8589 12.1434 25.8575L12.1432 25.8548L12.1427 25.8504L12.1422 25.8451C12.142 25.8431 12.1421 25.8441 12.1425 25.8481C12.1434 25.8561 12.1456 25.8759 12.1495 25.9066C12.1573 25.9681 12.1715 26.0731 12.1944 26.2152C12.2403 26.5003 12.3202 26.9292 12.4506 27.4528C12.7147 28.5133 13.1683 29.891 13.9177 31.237C15.3523 33.8135 17.8189 36.2757 22.6022 36.2757C27.4321 36.2757 29.6857 33.9192 30.915 31.6016C31.5732 30.3607 31.9468 29.0849 32.1523 28.0969C32.2536 27.6099 32.3102 27.2118 32.3407 26.9489C32.3559 26.818 32.3644 26.7222 32.3688 26.6674C32.3709 26.6401 32.372 26.6231 32.3724 26.6174L32.3721 26.6236L32.3717 26.6313C32.3716 26.6329 32.3716 26.6345 35.6216 26.7971C38.8717 26.9598 38.8716 26.9615 38.8716 26.9633L38.8714 26.967L38.871 26.9754L38.8699 26.9957C38.8691 27.0109 38.868 27.0292 38.8667 27.0506C38.864 27.0934 38.8602 27.1486 38.8549 27.2153C38.8444 27.3487 38.8278 27.5287 38.8023 27.7489C38.7514 28.1882 38.6639 28.7933 38.5148 29.5102C38.2194 30.9297 37.6664 32.8641 36.6219 34.8334C34.4458 38.9361 30.1897 43 22.6022 43C14.968 43 10.5863 38.7379 8.27683 34.5902C7.15421 32.574 6.51192 30.5895 6.14807 29.1284C5.96452 28.3913 5.84743 27.7695 5.77489 27.3192C5.73854 27.0935 5.71316 26.9095 5.6961 26.7741C5.68757 26.7063 5.6811 26.6505 5.67638 26.6077C5.67402 26.5862 5.6721 26.568 5.67057 26.553L5.66856 26.5331L5.66777 26.525L5.66743 26.5214ZM32.3724 26.6174C32.3726 26.6145 32.3725 26.6146 32.3724 26.6174Z" fill="#FF5858" style="fill:#FF5858;fill:color(display-p3 1.0000 0.3443 0.3443);fill-opacity:1;"/>
</svg>
