<svg width="141" height="129" viewBox="0 0 141 129" fill="none" xmlns="http://www.w3.org/2000/svg">
<path d="M41.5 24L41.5 50C41.5 58.0081 35.0081 64.5 27 64.5C18.9919 64.5 12.5 58.0081 12.5 50L12.5 24C12.5 15.9919 18.9919 9.5 27 9.5C35.0081 9.5 41.5 15.9919 41.5 24Z" stroke="#BC3636" style="stroke:#BC3636;stroke:color(display-p3 0.7386 0.2115 0.2115);stroke-opacity:1;" stroke-width="5"/>
<path d="M138.5 24L138.5 50C138.5 58.0081 132.008 64.5 124 64.5C115.992 64.5 109.5 58.0081 109.5 50L109.5 24C109.5 15.9919 115.992 9.5 124 9.5C132.008 9.5 138.5 15.9919 138.5 24Z" stroke="#BC3636" style="stroke:#BC3636;stroke:color(display-p3 0.7386 0.2115 0.2115);stroke-opacity:1;" stroke-width="5"/>
<mask id="path-3-inside-1_36_159" fill="white">
<path fill-rule="evenodd" clip-rule="evenodd" d="M24 79.0531C23.9995 79.0481 23.999 79.0432 34.0443 78.0463C44.0896 77.0495 44.0891 77.0449 44.0887 77.0405L44.0879 77.0325L44.0866 77.0192L44.0849 77.003C44.0843 76.9969 44.0846 77.0001 44.0859 77.0122C44.0887 77.0364 44.0956 77.0963 44.1076 77.1894C44.1316 77.376 44.1758 77.6941 44.2468 78.1247C44.3892 78.989 44.637 80.2889 45.0415 81.8762C45.8607 85.0906 47.2679 89.2664 49.5926 93.3459C54.0427 101.156 61.6943 108.619 76.532 108.619C91.5145 108.619 98.5053 101.476 102.318 94.4513C104.36 90.6899 105.519 86.8231 106.157 83.8282C106.471 82.3522 106.647 81.1457 106.741 80.3487C106.788 79.9519 106.815 79.6614 106.828 79.4955C106.835 79.4126 106.838 79.3613 106.839 79.3438L106.838 79.3628L106.837 79.3861C106.837 79.3908 106.837 79.3956 116.919 79.8887C127 80.3819 127 80.387 127 80.3922L126.999 80.4035L126.998 80.4289L126.995 80.4906C126.992 80.5365 126.989 80.5921 126.985 80.657C126.977 80.7867 126.965 80.954 126.948 81.1562C126.916 81.5604 126.864 82.1061 126.785 82.7735C126.627 84.105 126.356 85.9391 125.893 88.1119C124.977 92.4147 123.261 98.278 120.021 104.247C113.271 116.682 100.069 129 76.532 129C52.8506 129 39.2583 116.082 32.0944 103.51C28.612 97.3985 26.6196 91.3836 25.491 86.9549C24.9216 84.7207 24.5584 82.836 24.3334 81.471C24.2206 80.7871 24.1419 80.2294 24.089 79.8188C24.0625 79.6134 24.0424 79.4444 24.0278 79.3144C24.0205 79.2494 24.0145 79.194 24.0097 79.1488L24.0035 79.0884L24.0011 79.0639L24 79.0531ZM106.839 79.3438C106.84 79.3351 106.84 79.3353 106.839 79.3438Z"/>
</mask>
<path d="M24 79.0531L19.0239 79.5413L19.0242 79.5444L24 79.0531ZM44.0887 77.0405L49.0649 76.5533L49.0644 76.5486L44.0887 77.0405ZM44.0879 77.0325L49.0636 76.5406L49.063 76.5344L44.0879 77.0325ZM44.0866 77.0192L49.0617 76.521L49.0604 76.5084L44.0866 77.0192ZM44.0849 77.003L49.0588 76.4923L49.0577 76.4817L44.0849 77.003ZM44.0859 77.0122L49.0545 76.4528L49.0545 76.4527L44.0859 77.0122ZM44.1076 77.1894L49.0666 76.5504L49.0666 76.5504L44.1076 77.1894ZM44.2468 78.1247L49.1802 77.3114L49.1802 77.3114L44.2468 78.1247ZM45.0415 81.8762L49.8867 80.6414L49.8867 80.6414L45.0415 81.8762ZM49.5926 93.3459L45.2484 95.8214L45.2484 95.8214L49.5926 93.3459ZM102.318 94.4513L106.713 96.8367L106.713 96.8367L102.318 94.4513ZM106.157 83.8282L101.266 82.7869L101.266 82.7869L106.157 83.8282ZM106.741 80.3487L101.776 79.7594L101.776 79.7595L106.741 80.3487ZM106.828 79.4955L111.812 79.8991L111.812 79.8988L106.828 79.4955ZM106.838 79.3628L101.845 79.1043L101.845 79.1115L106.838 79.3628ZM106.837 79.3861L101.844 79.1349L101.843 79.1433L106.837 79.3861ZM116.919 79.8887L117.163 74.8947L116.919 79.8887ZM127 80.3922L131.994 80.6395L131.994 80.6385L127 80.3922ZM126.999 80.4035L131.993 80.6574L131.993 80.6508L126.999 80.4035ZM126.998 80.4289L131.991 80.698C131.991 80.6929 131.991 80.6878 131.992 80.6827L126.998 80.4289ZM126.995 80.4906L131.987 80.7698L131.988 80.7596L126.995 80.4906ZM126.985 80.657L131.975 80.9762L131.975 80.9761L126.985 80.657ZM126.948 81.1562L121.965 80.7527L121.965 80.7527L126.948 81.1562ZM126.785 82.7735L121.82 82.1842L121.82 82.1842L126.785 82.7735ZM125.893 88.1119L121.003 87.0706L121.003 87.0706L125.893 88.1119ZM120.021 104.247L115.627 101.861L115.627 101.861L120.021 104.247ZM32.0944 103.51L27.7502 105.985L27.7502 105.985L32.0944 103.51ZM25.491 86.9549L20.6459 88.1897L25.491 86.9549ZM24.3334 81.471L19.4 82.2843L19.4 82.2843L24.3334 81.471ZM24.089 79.8188L29.048 79.1798L29.048 79.1798L24.089 79.8188ZM24.0278 79.3144L28.9964 78.7549L28.9964 78.7549L24.0278 79.3144ZM24.0097 79.1488L19.0361 79.6613L19.037 79.6702L24.0097 79.1488ZM24.0035 79.0884L19.0284 79.5866C19.0289 79.5914 19.0294 79.5961 19.0299 79.6009L24.0035 79.0884ZM24.0011 79.0639L19.0253 79.5552L19.026 79.5621L24.0011 79.0639ZM33.5505 73.0708C28.5284 73.5692 26.0136 73.82 24.754 73.9468C24.1282 74.0099 23.8 74.0435 23.6262 74.0621C23.5555 74.0696 23.4586 74.08 23.3711 74.0915C23.3447 74.0949 23.2966 74.1014 23.2379 74.1105C23.1975 74.1168 23.0605 74.1383 22.8886 74.1775C22.8027 74.1971 22.6338 74.2379 22.426 74.3068C22.2605 74.3617 21.8135 74.5162 21.3076 74.8396C20.7624 75.188 19.8265 75.9417 19.3182 77.2977C19.0778 77.9389 19.0116 78.5148 19.0015 78.9314C18.9967 79.1296 19.0047 79.2901 19.0113 79.3885C19.014 79.4267 19.0186 79.484 19.0203 79.5031C19.0221 79.5222 19.0239 79.5413 19.0239 79.5413L28.9761 78.5648C28.9638 78.4389 29.1463 79.569 28.6819 80.808C28.1736 82.1638 27.2378 82.9173 26.693 83.2656C26.1873 83.5888 25.7408 83.743 25.576 83.7977C25.3689 83.8665 25.2008 83.9069 25.1161 83.9263C24.9467 83.965 24.8133 83.9857 24.7784 83.9912C24.7252 83.9995 24.6844 84.0049 24.6678 84.0071C24.6194 84.0134 24.6009 84.0148 24.687 84.0056C24.8269 83.9907 25.1264 83.9599 25.756 83.8965C27.0073 83.7705 29.515 83.5204 34.5381 83.0219L33.5505 73.0708ZM39.1125 77.5278C39.1242 77.647 38.917 76.387 39.508 75.0364C40.1129 73.6539 41.1406 72.9665 41.6093 72.6989C42.0831 72.4283 42.4922 72.3003 42.635 72.257C42.82 72.2008 42.9694 72.1674 43.044 72.1515C43.1938 72.1195 43.3112 72.102 43.3417 72.0975C43.3884 72.0905 43.4239 72.0859 43.4381 72.0841C43.4786 72.079 43.4904 72.0782 43.4053 72.0872C43.2636 72.1022 42.9626 72.133 42.3332 72.1964C41.0815 72.3223 38.5736 72.5723 33.5505 73.0708L34.5381 83.0219C39.5603 82.5235 42.0747 82.2728 43.3341 82.1461C43.9601 82.0832 44.2868 82.0498 44.4588 82.0315C44.5305 82.0239 44.6207 82.0143 44.7004 82.0041C44.7244 82.0011 44.7672 81.9955 44.8194 81.9877C44.8553 81.9823 44.9765 81.9642 45.1287 81.9318C45.2045 81.9156 45.3548 81.8819 45.5405 81.8256C45.6839 81.782 46.0934 81.6538 46.5676 81.3831C47.0366 81.1153 48.0643 80.4278 48.6693 79.0451C48.9683 78.3618 49.0645 77.7281 49.0844 77.248C49.0937 77.0229 49.0859 76.8401 49.0789 76.7278C49.076 76.6841 49.0709 76.6187 49.069 76.5969C49.067 76.5751 49.0649 76.5533 49.0649 76.5533L39.1125 77.5278ZM39.1122 77.5245L39.113 77.5325L49.0644 76.5486L49.0636 76.5406L39.1122 77.5245ZM39.1114 77.5173L39.1128 77.5307L49.063 76.5344L49.0617 76.521L39.1114 77.5173ZM39.1111 77.5138L39.1127 77.5299L49.0604 76.5084L49.0587 76.4923L39.1111 77.5138ZM49.0545 76.4527C49.0546 76.4531 49.0548 76.4555 49.0553 76.4599C49.0554 76.4605 49.0554 76.461 49.0555 76.4615C49.0556 76.462 49.0556 76.4625 49.0556 76.4624C49.0556 76.4624 49.0556 76.4623 49.0556 76.4622C49.0556 76.4621 49.0556 76.462 49.0555 76.4618C49.0555 76.4616 49.0555 76.4613 49.0554 76.4608C49.0554 76.4605 49.0553 76.4595 49.0552 76.4583C49.0551 76.4577 49.055 76.4565 49.0548 76.4551C49.0547 76.4542 49.0543 76.4506 49.0538 76.4461C49.0535 76.4434 49.0527 76.436 49.0521 76.4313C49.0509 76.421 49.0446 76.3689 49.0391 76.3273C43.618 72.0218 39.0977 77.3624 39.1062 77.4649C39.1076 77.4797 39.1097 77.5003 39.1103 77.5062C39.1111 77.5142 39.1118 77.5206 39.1118 77.5211C39.112 77.5231 39.1122 77.5247 39.1123 77.5254C39.1124 77.527 39.1126 77.5281 39.1126 77.5285C39.1127 77.5292 39.113 77.5323 39.1128 77.53C39.1125 77.5279 39.1123 77.526 39.1122 77.5244L49.0577 76.4817C49.0572 76.477 49.0568 76.4732 49.0565 76.4704C49.0562 76.4679 49.0565 76.4709 49.0566 76.4715C49.0566 76.4719 49.0567 76.4731 49.0569 76.4746C49.057 76.4753 49.0571 76.4769 49.0574 76.4789C49.0574 76.4794 49.0581 76.4858 49.0589 76.4938C49.0595 76.4997 49.0615 76.5203 49.0629 76.5351C49.0714 76.6376 44.5512 81.9782 39.13 77.6727C39.1246 77.6311 39.1182 77.579 39.117 77.5687C39.1165 77.564 39.1157 77.5566 39.1154 77.5539C39.1149 77.5494 39.1145 77.5458 39.1144 77.5449C39.1142 77.5435 39.1141 77.5423 39.114 77.5417C39.1139 77.5405 39.1138 77.5395 39.1137 77.5392C39.1137 77.5388 39.1137 77.5384 39.1136 77.5383C39.1136 77.5381 39.1136 77.5379 39.1136 77.5379C39.1136 77.5378 39.1136 77.5377 39.1136 77.5377C39.1136 77.5376 39.1136 77.5379 39.1136 77.5381C39.1137 77.5384 39.1137 77.5387 39.1137 77.5391C39.1138 77.5399 39.1139 77.5407 39.114 77.5416C39.1148 77.5492 39.1159 77.5592 39.1173 77.5716L49.0545 76.4527ZM49.0666 76.5504C49.0581 76.4846 49.0544 76.4512 49.0545 76.4528L39.1173 77.5716C39.123 77.6216 39.1331 77.708 39.1486 77.8285L49.0666 76.5504ZM49.1802 77.3114C49.1193 76.9424 49.0836 76.6825 49.0666 76.5504L39.1486 77.8284C39.1797 78.0694 39.2322 78.4458 39.3134 78.938L49.1802 77.3114ZM49.8867 80.6414C49.5223 79.2115 49.3026 78.0539 49.1802 77.3114L39.3134 78.938C39.4759 79.924 39.7517 81.3662 40.1964 83.111L49.8867 80.6414ZM53.9368 90.8705C51.8952 87.2878 50.6307 83.5607 49.8867 80.6414L40.1964 83.111C41.0908 86.6204 42.6406 91.245 45.2484 95.8214L53.9368 90.8705ZM76.532 103.619C70.0025 103.619 65.352 101.993 61.9132 99.7325C58.431 97.4438 55.8955 94.3079 53.9368 90.8705L45.2484 95.8214C47.7398 100.194 51.2551 104.694 56.4207 108.089C61.6297 111.513 68.2238 113.619 76.532 113.619V103.619ZM97.9241 92.0659C96.2903 95.0757 94.0974 97.8909 90.8884 99.9772C87.7083 102.045 83.1904 103.619 76.532 103.619V113.619C84.8561 113.619 91.3249 111.621 96.3391 108.361C101.324 105.12 104.533 100.852 106.713 96.8367L97.9241 92.0659ZM101.266 82.7869C100.696 85.4641 99.6731 88.8441 97.9241 92.0659L106.713 96.8367C109.047 92.5358 110.342 88.182 111.047 84.8695L101.266 82.7869ZM101.776 79.7595C101.697 80.4265 101.545 81.4804 101.266 82.7869L111.047 84.8695C111.398 83.224 111.596 81.8648 111.706 80.938L101.776 79.7595ZM101.844 79.0919C101.836 79.2 101.815 79.4284 101.776 79.7594L111.706 80.938C111.761 80.4754 111.794 80.1229 111.812 79.8991L101.844 79.0919ZM101.85 79.0252C101.85 79.0149 101.849 79.0379 101.844 79.0921L111.812 79.8988C111.821 79.7874 111.826 79.7078 111.829 79.6624L101.85 79.0252ZM111.832 79.6212L111.833 79.6023L101.846 79.0854L101.845 79.1043L111.832 79.6212ZM117.163 74.8947C112.122 74.6481 109.605 74.5238 108.349 74.4606C107.717 74.4288 107.415 74.413 107.274 74.4051C107.188 74.4003 107.203 74.4006 107.248 74.4041C107.263 74.4053 107.301 74.4084 107.351 74.4135C107.384 74.4168 107.51 74.4295 107.67 74.4565C107.75 74.47 107.909 74.4986 108.107 74.5506C108.262 74.5912 108.695 74.7096 109.199 74.9793C109.719 75.258 110.741 75.9276 111.369 77.273C111.672 77.9237 111.783 78.526 111.82 78.9744C111.838 79.1862 111.838 79.3585 111.837 79.4644C111.836 79.5055 111.834 79.5673 111.833 79.5878C111.832 79.6084 111.831 79.629 111.831 79.629L101.843 79.1433C101.843 79.1433 101.842 79.1639 101.841 79.1845C101.841 79.2051 101.839 79.2668 101.838 79.308C101.836 79.4139 101.837 79.5863 101.854 79.7981C101.891 80.2466 102.002 80.8489 102.306 81.4997C102.933 82.8452 103.956 83.515 104.476 83.7939C104.98 84.0637 105.414 84.1822 105.569 84.2231C105.768 84.2752 105.928 84.3041 106.01 84.3177C106.172 84.3451 106.302 84.3583 106.34 84.3622C106.395 84.3679 106.441 84.3716 106.466 84.3735C106.55 84.3801 106.644 84.3855 106.715 84.3895C106.889 84.3992 107.218 84.4163 107.846 84.4479C109.11 84.5116 111.634 84.6362 116.674 84.8828L117.163 74.8947ZM131.994 80.6385C131.994 80.6385 131.995 80.6202 131.996 80.6019C131.996 80.5836 131.998 80.5288 131.999 80.4923C132.001 80.3983 132.001 80.2449 131.989 80.056C131.962 79.6611 131.878 79.109 131.627 78.496C131.088 77.1812 130.152 76.4505 129.564 76.0994C129.031 75.7809 128.563 75.6387 128.385 75.5875C128.166 75.524 127.987 75.4892 127.896 75.4726C127.715 75.4394 127.57 75.4237 127.528 75.4191C127.466 75.4125 127.415 75.4082 127.388 75.4059C127.296 75.3985 127.196 75.3927 127.126 75.3887C126.95 75.3788 126.62 75.3615 125.992 75.3298C124.727 75.266 122.203 75.1412 117.163 74.8947L116.674 84.8828C121.716 85.1294 124.232 85.2537 125.488 85.3171C126.12 85.349 126.42 85.3648 126.56 85.3727C126.647 85.3776 126.625 85.377 126.573 85.3727C126.555 85.3713 126.512 85.3676 126.456 85.3616C126.419 85.3576 126.278 85.3425 126.099 85.3097C126.009 85.2933 125.832 85.2586 125.613 85.1954C125.436 85.1444 124.968 85.0024 124.435 84.6841C123.848 84.3331 122.912 83.6026 122.373 82.288C122.122 81.675 122.038 81.1231 122.011 80.7282C121.999 80.5394 121.999 80.386 122.001 80.2921C122.002 80.2556 122.004 80.2008 122.004 80.1825C122.005 80.1642 122.006 80.146 122.006 80.146L131.994 80.6385ZM131.993 80.6508L131.994 80.6395L122.006 80.145L122.006 80.1563L131.993 80.6508ZM131.992 80.6827L131.993 80.6574L122.006 80.1497L122.005 80.1751L131.992 80.6827ZM131.988 80.7596L131.991 80.698L122.005 80.1598L122.002 80.2215L131.988 80.7596ZM131.975 80.9761C131.98 80.8973 131.984 80.8284 131.987 80.7698L122.003 80.2113C122.001 80.2446 121.998 80.2868 121.995 80.3378L131.975 80.9761ZM131.932 81.5597C131.951 81.3285 131.965 81.1331 131.975 80.9762L121.995 80.3378C121.988 80.4404 121.979 80.5795 121.965 80.7527L131.932 81.5597ZM131.75 83.3628C131.837 82.6296 131.895 82.0218 131.932 81.5597L121.965 80.7527C121.937 81.0989 121.891 81.5826 121.82 82.1842L131.75 83.3628ZM130.784 89.1533C131.282 86.8109 131.577 84.8242 131.75 83.3627L121.82 82.1842C121.677 83.3858 121.429 85.0673 121.003 87.0706L130.784 89.1533ZM124.416 106.632C127.949 100.124 129.8 93.7738 130.784 89.1533L121.003 87.0706C120.154 91.0555 118.574 96.432 115.627 101.861L124.416 106.632ZM76.532 134C102.219 134 116.953 120.38 124.416 106.632L115.627 101.861C109.589 112.985 97.9183 124 76.532 124V134ZM27.7502 105.985C35.5701 119.708 50.6278 134 76.532 134V124C55.0735 124 42.9465 112.455 36.4386 101.034L27.7502 105.985ZM20.6459 88.1897C21.8498 92.9136 23.9848 99.3772 27.7502 105.985L36.4386 101.034C33.2393 95.4197 31.3895 89.8535 30.3361 85.7201L20.6459 88.1897ZM19.4 82.2843C19.6451 83.7711 20.0363 85.798 20.6459 88.1897L30.3361 85.7201C29.8069 83.6434 29.4717 81.9009 29.2668 80.6577L19.4 82.2843ZM19.13 80.4578C19.1899 80.9229 19.277 81.5388 19.4 82.2843L29.2668 80.6577C29.1642 80.0354 29.0938 79.5359 29.048 79.1798L19.13 80.4578ZM19.0592 79.8738C19.0767 80.0296 19.1 80.2251 19.13 80.4578L29.048 79.1798C29.025 79.0017 29.0081 78.8592 28.9964 78.7549L19.0592 79.8738ZM19.037 79.6702C19.0431 79.7279 19.0504 79.7959 19.0592 79.8739L28.9964 78.7549C28.9905 78.7028 28.9859 78.6601 28.9825 78.6273L19.037 79.6702ZM19.0299 79.6009L19.0361 79.6613L28.9834 78.6362L28.9772 78.5758L19.0299 79.6009ZM19.026 79.5621L19.0284 79.5866L28.9786 78.5902L28.9762 78.5657L19.026 79.5621ZM19.0242 79.5444L19.0253 79.5552L28.9769 78.5725L28.9758 78.5617L19.0242 79.5444ZM111.832 79.6239C111.831 79.6278 111.831 79.6347 111.83 79.6437C111.83 79.6473 111.83 79.6566 111.829 79.6687C111.829 79.6729 111.828 79.6883 111.826 79.7081C111.826 79.715 111.824 79.7422 111.82 79.7769C111.819 79.79 111.815 79.8357 111.809 79.894C111.806 79.919 111.798 79.9873 111.785 80.0743C111.779 80.116 111.766 80.2012 111.745 80.3081C111.737 80.3458 111.677 80.6678 111.536 81.055C111.431 81.3165 111.018 82.0835 110.665 82.5569C109.545 83.5425 105.925 84.253 103.854 83.3481C103.039 82.5858 102.219 81.2467 102.063 80.8156C102 80.5916 101.92 80.2287 101.897 80.0919C101.861 79.8528 101.85 79.664 101.847 79.6114C101.843 79.5308 101.841 79.4662 101.841 79.4304C101.838 79.311 101.841 79.2156 101.841 79.2096C101.843 79.1602 101.844 79.1213 101.845 79.1159C101.846 79.0924 101.847 79.0741 101.847 79.0702C101.848 79.0573 101.848 79.0474 101.848 79.0439C101.849 79.0349 101.849 79.0281 101.85 79.0247L111.829 79.6629C111.83 79.6551 111.83 79.6451 111.831 79.6339C111.831 79.6294 111.832 79.6187 111.833 79.6052C111.833 79.601 111.834 79.5826 111.835 79.559C111.835 79.5535 111.837 79.5145 111.838 79.4651C111.838 79.4591 111.841 79.3637 111.839 79.2443C111.838 79.2085 111.837 79.1439 111.832 79.0633C111.829 79.0107 111.819 78.8219 111.783 78.5828C111.76 78.446 111.68 78.0831 111.616 77.859C111.461 77.4279 110.641 76.0888 109.825 75.3266C107.754 74.4217 104.135 75.1321 103.014 76.1178C102.661 76.5912 102.248 77.3581 102.144 77.6197C102.002 78.0069 101.942 78.3289 101.935 78.3666C101.914 78.4735 101.901 78.5587 101.894 78.6003C101.881 78.6873 101.874 78.7557 101.871 78.7807C101.864 78.839 101.86 78.8847 101.859 78.8979C101.856 78.9326 101.854 78.9598 101.854 78.9668C101.852 78.9867 101.851 79.0023 101.851 79.0069C101.85 79.0195 101.849 79.0295 101.849 79.0343C101.848 79.0455 101.848 79.0556 101.847 79.0637L111.832 79.6239ZM111.831 79.6373L111.832 79.614L101.845 79.1115L101.844 79.1349L111.831 79.6373Z" fill="#BC3636" style="fill:#BC3636;fill:color(display-p3 0.7386 0.2115 0.2115);fill-opacity:1;" mask="url(#path-3-inside-1_36_159)"/>
<rect width="34" height="60" rx="17" fill="#FF5858" style="fill:#FF5858;fill:color(display-p3 1.0000 0.3451 0.3451);fill-opacity:1;"/>
<rect x="97" width="34" height="60" rx="17" fill="#FF5858" style="fill:#FF5858;fill:color(display-p3 1.0000 0.3451 0.3451);fill-opacity:1;"/>
<path fill-rule="evenodd" clip-rule="evenodd" d="M16.5464 74.9385C16.5459 74.9339 16.5455 74.9293 25.9999 74C35.4544 73.0707 35.4539 73.0665 35.4535 73.0624L35.4528 73.0549L35.4515 73.0425L35.45 73.0274C35.4494 73.0217 35.4497 73.0247 35.4509 73.036C35.4535 73.0585 35.46 73.1144 35.4713 73.2012C35.494 73.3751 35.5355 73.6716 35.6023 74.0731C35.7364 74.8787 35.9696 76.0905 36.3503 77.5703C37.1214 80.5668 38.4458 84.4596 40.6337 88.2626C44.8221 95.5428 52.0236 102.5 65.9886 102.5C80.09 102.5 86.6695 95.8416 90.2584 89.293C92.1801 85.7866 93.2708 82.1819 93.871 79.39C94.1668 78.014 94.332 76.8893 94.4211 76.1464C94.4654 75.7764 94.4903 75.5056 94.5029 75.3509C94.5092 75.2737 94.5125 75.2259 94.5135 75.2095L94.5126 75.2272L94.5115 75.249C94.5113 75.2533 94.5111 75.2578 104 75.7175C113.489 76.1772 113.489 76.182 113.488 76.1869L113.488 76.1974L113.487 76.2211L113.483 76.2786C113.481 76.3214 113.478 76.3732 113.474 76.4337C113.466 76.5547 113.455 76.7106 113.44 76.8991C113.409 77.2759 113.361 77.7846 113.286 78.4067C113.137 79.648 112.882 81.3578 112.447 83.3834C111.584 87.3945 109.97 92.8603 106.92 98.4245C100.567 110.017 88.1409 121.5 65.9886 121.5C43.7001 121.5 30.9073 109.457 24.1647 97.7374C20.8872 92.0405 19.0119 86.4333 17.9497 82.3048C17.4138 80.222 17.0719 78.465 16.8601 77.1926C16.754 76.555 16.6799 76.0351 16.6301 75.6524C16.6052 75.4609 16.5863 75.3033 16.5725 75.1821C16.5657 75.1215 16.56 75.0699 16.5556 75.0277L16.5497 74.9714L16.5474 74.9486L16.5464 74.9385ZM94.5135 75.2095C94.514 75.2014 94.514 75.2016 94.5135 75.2095Z" fill="#FF5858" style="fill:#FF5858;fill:color(display-p3 1.0000 0.3443 0.3443);fill-opacity:1;"/>
</svg>
